<svg xmlns="http://www.w3.org/2000/svg" width="1600" height="900" viewBox="0 0 1600 900">
<rect width="1600" height="900" fill="white"/>
<text x="56" y="64" font-family="Arial, Helvetica, sans-serif" font-size="32" font-weight="700" fill="#082B62" text-anchor="start">07. Executive Dashboard</text><text x="56" y="100" font-family="Arial, Helvetica, sans-serif" font-size="17" font-weight="400" fill="#526681" text-anchor="start">Real-time visibility, risk and carrier performance</text><line x1="56" y1="122" x2="1544" y2="122" stroke="#CAD7EA" stroke-width="2"/><rect x="55" y="145" width="190" height="690" rx="12" fill="#082B62" stroke="#082B62" stroke-width="2"/><text x="150" y="185" font-family="Arial, Helvetica, sans-serif" font-size="23" font-weight="700" fill="white" text-anchor="middle">ITEM TMS</text><text x="85" y="240" font-family="Arial, Helvetica, sans-serif" font-size="16" font-weight="600" fill="white" text-anchor="start">Dashboard</text><text x="85" y="293" font-family="Arial, Helvetica, sans-serif" font-size="16" font-weight="600" fill="white" text-anchor="start">Shipments</text><text x="85" y="346" font-family="Arial, Helvetica, sans-serif" font-size="16" font-weight="600" fill="white" text-anchor="start">Loads</text><text x="85" y="399" font-family="Arial, Helvetica, sans-serif" font-size="16" font-weight="600" fill="white" text-anchor="start">Track &amp; Trace</text><text x="85" y="452" font-family="Arial, Helvetica, sans-serif" font-size="16" font-weight="600" fill="white" text-anchor="start">Appointments</text><text x="85" y="505" font-family="Arial, Helvetica, sans-serif" font-size="16" font-weight="600" fill="white" text-anchor="start">Exceptions</text><text x="85" y="558" font-family="Arial, Helvetica, sans-serif" font-size="16" font-weight="600" fill="white" text-anchor="start">Checkpoints</text><text x="85" y="611" font-family="Arial, Helvetica, sans-serif" font-size="16" font-weight="600" fill="white" text-anchor="start">Reports</text><text x="85" y="664" font-family="Arial, Helvetica, sans-serif" font-size="16" font-weight="600" fill="white" text-anchor="start">Claims</text><text x="85" y="717" font-family="Arial, Helvetica, sans-serif" font-size="16" font-weight="600" fill="white" text-anchor="start">Settings</text><rect x="285" y="145" width="270" height="110" rx="12" fill="white" stroke="#CAD7EA" stroke-width="2"/><text x="310" y="185" font-family="Arial, Helvetica, sans-serif" font-size="15" font-weight="500" fill="#526681" text-anchor="start">Total Shipments</text><text x="310" y="230" font-family="Arial, Helvetica, sans-serif" font-size="31" font-weight="700" fill="#082B62" text-anchor="start">1,256</text><rect x="585" y="145" width="270" height="110" rx="12" fill="white" stroke="#CAD7EA" stroke-width="2"/><text x="610" y="185" font-family="Arial, Helvetica, sans-serif" font-size="15" font-weight="500" fill="#526681" text-anchor="start">In Transit</text><text x="610" y="230" font-family="Arial, Helvetica, sans-serif" font-size="31" font-weight="700" fill="#082B62" text-anchor="start">632</text><rect x="885" y="145" width="270" height="110" rx="12" fill="white" stroke="#CAD7EA" stroke-width="2"/><text x="910" y="185" font-family="Arial, Helvetica, sans-serif" font-size="15" font-weight="500" fill="#526681" text-anchor="start">On Time</text><text x="910" y="230" font-family="Arial, Helvetica, sans-serif" font-size="31" font-weight="700" fill="#082B62" text-anchor="start">92.1%</text><rect x="1185" y="145" width="270" height="110" rx="12" fill="white" stroke="#CAD7EA" stroke-width="2"/><text x="1210" y="185" font-family="Arial, Helvetica, sans-serif" font-size="15" font-weight="500" fill="#526681" text-anchor="start">Exceptions</text><text x="1210" y="230" font-family="Arial, Helvetica, sans-serif" font-size="31" font-weight="700" fill="#082B62" text-anchor="start">47</text><rect x="285" y="285" width="860" height="315" rx="12" fill="#EDF4FC" stroke="#CAD7EA" stroke-width="2"/><text x="315" y="325" font-family="Arial, Helvetica, sans-serif" font-size="19" font-weight="700" fill="#082B62" text-anchor="start">Shipment Map</text><line x1="350" y1="510" x2="480" y2="455" stroke="#3868B3" stroke-width="5"/><line x1="480" y1="455" x2="620" y2="475" stroke="#3868B3" stroke-width="5"/><line x1="620" y1="475" x2="780" y2="400" stroke="#3868B3" stroke-width="5"/><line x1="780" y1="400" x2="940" y2="420" stroke="#3868B3" stroke-width="5"/><line x1="940" y1="420" x2="1080" y2="350" stroke="#3868B3" stroke-width="5"/><circle cx="350" cy="510" r="9" fill="#0B4AA2" stroke="#0B4AA2" stroke-width="2"/><circle cx="480" cy="455" r="9" fill="#0B4AA2" stroke="#0B4AA2" stroke-width="2"/><circle cx="620" cy="475" r="9" fill="#0B4AA2" stroke="#0B4AA2" stroke-width="2"/><circle cx="780" cy="400" r="9" fill="#0B4AA2" stroke="#0B4AA2" stroke-width="2"/><circle cx="940" cy="420" r="9" fill="#0B4AA2" stroke="#0B4AA2" stroke-width="2"/><circle cx="1080" cy="350" r="9" fill="#0B4AA2" stroke="#0B4AA2" stroke-width="2"/><rect x="1175" y="285" width="365" height="315" rx="12" fill="white" stroke="#CAD7EA" stroke-width="2"/><text x="1205" y="325" font-family="Arial, Helvetica, sans-serif" font-size="19" font-weight="700" fill="#082B62" text-anchor="start">Recent Alerts</text><rect x="1205" y="355" width="305" height="42" rx="12" fill="#FFF3F3" stroke="#F1C5C5" stroke-width="2"/><text x="1222" y="382" font-family="Arial, Helvetica, sans-serif" font-size="15" font-weight="600" fill="#D74747" text-anchor="start">⚠ Missed checkpoint</text><rect x="1205" y="410" width="305" height="42" rx="12" fill="#FFF3F3" stroke="#F1C5C5" stroke-width="2"/><text x="1222" y="437" font-family="Arial, Helvetica, sans-serif" font-size="15" font-weight="600" fill="#D74747" text-anchor="start">⚠ Seal tamper alert</text><rect x="1205" y="465" width="305" height="42" rx="12" fill="#FFF3F3" stroke="#F1C5C5" stroke-width="2"/><text x="1222" y="492" font-family="Arial, Helvetica, sans-serif" font-size="15" font-weight="600" fill="#D74747" text-anchor="start">⚠ Tracking signal lost</text><rect x="1205" y="520" width="305" height="42" rx="12" fill="#FFF3F3" stroke="#F1C5C5" stroke-width="2"/><text x="1222" y="547" font-family="Arial, Helvetica, sans-serif" font-size="15" font-weight="600" fill="#D74747" text-anchor="start">⚠ Unexpected stop</text><rect x="285" y="630" width="400" height="180" rx="12" fill="white" stroke="#CAD7EA" stroke-width="2"/><text x="315" y="670" font-family="Arial, Helvetica, sans-serif" font-size="18" font-weight="700" fill="#082B62" text-anchor="start">Tracking Confidence</text><circle cx="405" cy="730" r="58" fill="none" stroke="#CAD7EA" stroke-width="18"/><text x="405" y="739" font-family="Arial, Helvetica, sans-serif" font-size="24" font-weight="700" fill="#0F9D78" text-anchor="middle">96%</text><rect x="715" y="630" width="825" height="180" rx="12" fill="white" stroke="#CAD7EA" stroke-width="2"/><text x="745" y="670" font-family="Arial, Helvetica, sans-serif" font-size="18" font-weight="700" fill="#082B62" text-anchor="start">Top Carrier Performance</text><text x="755" y="715" font-family="Arial, Helvetica, sans-serif" font-size="15" font-weight="600" fill="#122A50" text-anchor="start">Carrier A</text><rect x="880" y="699" width="500" height="18" rx="9" fill="#E6EDF7" stroke="none" stroke-width="2"/><rect x="880" y="699" width="480" height="18" rx="9" fill="#0F9D78" stroke="none" stroke-width="2"/><text x="755" y="749" font-family="Arial, Helvetica, sans-serif" font-size="15" font-weight="600" fill="#122A50" text-anchor="start">Carrier B</text><rect x="880" y="733" width="500" height="18" rx="9" fill="#E6EDF7" stroke="none" stroke-width="2"/><rect x="880" y="733" width="460" height="18" rx="9" fill="#0F9D78" stroke="none" stroke-width="2"/><text x="755" y="783" font-family="Arial, Helvetica, sans-serif" font-size="15" font-weight="600" fill="#122A50" text-anchor="start">Carrier C</text><rect x="880" y="767" width="500" height="18" rx="9" fill="#E6EDF7" stroke="none" stroke-width="2"/><rect x="880" y="767" width="455" height="18" rx="9" fill="#0F9D78" stroke="none" stroke-width="2"/>
</svg>